<svg xmlns="http://www.w3.org/2000/svg" xmlns:xlink="http://www.w3.org/1999/xlink" contentStyleType="text/css" data-diagram-type="DESCRIPTION" height="935px" preserveAspectRatio="none" style="width:1685px;height:935px;background:#FFFFFF;" version="1.1" viewBox="0 0 1685 935" width="1685px" zoomAndPan="magnify"><?plantuml 1.2026.6?><defs/><g><g class="cluster" data-qualified-name="..10" data-source-line="17" id="ent0011"><rect fill="#FFFFFF" height="473.43" style="stroke:#000000;stroke-width:1;" width="1148" x="203.65" y="448.47"/></g><!--entity AUTH--><g class="entity" data-qualified-name="..10.AUTH" data-source-line="18" id="ent0012"><ellipse cx="846.6479" cy="758.0974" fill="#FFFFFF" rx="36.0379" ry="12.8774" style="stroke:#000000;stroke-width:1;"/><text fill="#000000" font-family="DejaVu Sans" font-size="12" font-weight="700" lengthAdjust="spacing" textLength="46.7227" x="823.2866" y="761.5818">Sign in</text></g><!--entity UPGRADE--><g class="entity" data-qualified-name="..10.UPGRADE" data-source-line="19" id="ent0013"><ellipse cx="422.6542" cy="486.3394" fill="#FFFFFF" rx="54.2142" ry="21.8694" style="stroke:#000000;stroke-width:1;"/><text fill="#000000" font-family="DejaVu Sans" font-size="12" font-weight="700" lengthAdjust="spacing" textLength="75.8262" x="384.7412" y="484.1224">Upgrade to</text><text fill="#000000" font-family="DejaVu Sans" font-size="12" font-weight="700" lengthAdjust="spacing" textLength="60.3105" x="392.499" y="498.0911">premium</text></g><!--entity SUBSCRIBE--><g class="entity" data-qualified-name="..10.SUBSCRIBE" data-source-line="20" id="ent0014"><ellipse cx="471.6509" cy="632.9391" fill="#FFFFFF" rx="62.4909" ry="22.2791" style="stroke:#000000;stroke-width:1;"/><text fill="#000000" font-family="DejaVu Sans" font-size="12" font-weight="700" lengthAdjust="spacing" textLength="86.209" x="428.5465" y="630.1204">Subscribe as</text><text fill="#000000" font-family="DejaVu Sans" font-size="12" font-weight="700" lengthAdjust="spacing" textLength="77.3438" x="432.9791" y="644.0891">a magazine</text></g><!--entity GRANT--><g class="entity" data-qualified-name="..10.GRANT" data-source-line="21" id="ent0015"><ellipse cx="714.6519" cy="758.1011" fill="#FFFFFF" rx="82.1019" ry="20.7611" style="stroke:#000000;stroke-width:1;"/><text fill="#000000" font-family="DejaVu Sans" font-size="12" font-weight="700" lengthAdjust="spacing" textLength="124.4238" x="652.44" y="757.6003">Grant the monthly</text><text fill="#000000" font-family="DejaVu Sans" font-size="12" font-weight="700" lengthAdjust="spacing" textLength="46.752" x="691.2759" y="771.569">credits</text></g><!--entity TOPUP--><g class="entity" data-qualified-name="..10.TOPUP" data-source-line="22" id="ent0016"><ellipse cx="282.6499" cy="758.104" fill="#FFFFFF" rx="62.8699" ry="14.974" style="stroke:#000000;stroke-width:1;"/><text fill="#000000" font-family="DejaVu Sans" font-size="12" font-weight="700" lengthAdjust="spacing" textLength="97.2598" x="234.02" y="761.5884">Top up credits</text></g><!--entity LIST--><g class="entity" data-qualified-name="..10.LIST" data-source-line="23" id="ent0017"><ellipse cx="1185.6515" cy="632.9449" fill="#FFFFFF" rx="83.0015" ry="22.6349" style="stroke:#000000;stroke-width:1;"/><text fill="#000000" font-family="DejaVu Sans" font-size="12" font-weight="700" lengthAdjust="spacing" textLength="113.8301" x="1128.7364" y="629.615">List an article on</text><text fill="#000000" font-family="DejaVu Sans" font-size="12" font-weight="700" lengthAdjust="spacing" textLength="111.0234" x="1130.1398" y="643.5837">the marketplace</text></g><!--entity PRICE--><g class="entity" data-qualified-name="..10.PRICE" data-source-line="24" id="ent0018"><ellipse cx="1250.6488" cy="758.1018" fill="#FFFFFF" rx="53.4588" ry="13.0918" style="stroke:#000000;stroke-width:1;"/><text fill="#000000" font-family="DejaVu Sans" font-size="12" font-weight="700" lengthAdjust="spacing" textLength="72.8438" x="1214.2269" y="761.5861">Set a price</text></g><!--entity BROWSE--><g class="entity" data-qualified-name="..10.BROWSE" data-source-line="25" id="ent0019"><ellipse cx="831.6512" cy="632.9429" fill="#FFFFFF" rx="90.8212" ry="20.7429" style="stroke:#000000;stroke-width:1;"/><text fill="#000000" font-family="DejaVu Sans" font-size="12" font-weight="700" lengthAdjust="spacing" textLength="138.2813" x="762.5106" y="632.4716">Browse marketplace</text><text fill="#000000" font-family="DejaVu Sans" font-size="12" font-weight="700" lengthAdjust="spacing" textLength="50.373" x="806.4647" y="646.4404">articles</text></g><!--entity BUY--><g class="entity" data-qualified-name="..10.BUY" data-source-line="26" id="ent0020"><ellipse cx="307.647" cy="632.9423" fill="#FFFFFF" rx="87.897" ry="21.1723" style="stroke:#000000;stroke-width:1;"/><text fill="#000000" font-family="DejaVu Sans" font-size="12" font-weight="700" lengthAdjust="spacing" textLength="130.5176" x="242.3882" y="631.7875">Purchase an article</text><text fill="#000000" font-family="DejaVu Sans" font-size="12" font-weight="700" lengthAdjust="spacing" textLength="74.8008" x="270.2466" y="645.7562">exclusively</text></g><!--entity PREVIEW--><g class="entity" data-qualified-name="..10.PREVIEW" data-source-line="27" id="ent0021"><ellipse cx="447.6478" cy="758.1" fill="#FFFFFF" rx="88.2278" ry="22.52" style="stroke:#000000;stroke-width:1;"/><text fill="#000000" font-family="DejaVu Sans" font-size="12" font-weight="700" lengthAdjust="spacing" textLength="115.998" x="389.6488" y="754.2658">Unlock a preview</text><text fill="#000000" font-family="DejaVu Sans" font-size="12" font-weight="700" lengthAdjust="spacing" textLength="121.9805" x="386.6576" y="768.2346">(10% of the price)</text></g><!--entity LEDGER--><g class="entity" data-qualified-name="..10.LEDGER" data-source-line="28" id="ent0022"><ellipse cx="532.6464" cy="883.2614" fill="#FFFFFF" rx="77.7964" ry="22.6414" style="stroke:#000000;stroke-width:1;"/><text fill="#000000" font-family="DejaVu Sans" font-size="12" font-weight="700" lengthAdjust="spacing" textLength="103.9102" x="480.6913" y="879.6006">Move credits in</text><text fill="#000000" font-family="DejaVu Sans" font-size="12" font-weight="700" lengthAdjust="spacing" textLength="106.3887" x="479.452" y="893.5693">one transaction</text></g><!--entity LIB--><g class="entity" data-qualified-name="..10.LIB" data-source-line="29" id="ent0023"><ellipse cx="286.6458" cy="486.3392" fill="#FFFFFF" rx="67.2958" ry="15.8592" style="stroke:#000000;stroke-width:1;"/><text fill="#000000" font-family="DejaVu Sans" font-size="12" font-weight="700" lengthAdjust="spacing" textLength="107.9707" x="232.6605" y="489.8235">View the library</text></g><!--entity PUBLISH--><g class="entity" data-qualified-name="..10.PUBLISH" data-source-line="30" id="ent0024"><ellipse cx="637.6496" cy="632.9419" fill="#FFFFFF" rx="89.6396" ry="20.6719" style="stroke:#000000;stroke-width:1;"/><text fill="#000000" font-family="DejaVu Sans" font-size="12" font-weight="700" lengthAdjust="spacing" textLength="136.9688" x="569.1652" y="632.5862">Publish a purchased</text><text fill="#000000" font-family="DejaVu Sans" font-size="12" font-weight="700" lengthAdjust="spacing" textLength="43.2305" x="616.0343" y="646.5549">article</text></g><!--entity EARN--><g class="entity" data-qualified-name="..10.EARN" data-source-line="31" id="ent0025"><ellipse cx="553.6544" cy="486.3429" fill="#FFFFFF" rx="62.3144" ry="14.8629" style="stroke:#000000;stroke-width:1;"/><text fill="#000000" font-family="DejaVu Sans" font-size="12" font-weight="700" lengthAdjust="spacing" textLength="95.8887" x="505.7101" y="489.8273">View earnings</text></g><!--entity MOD--><g class="entity" data-qualified-name="..10.MOD" data-source-line="32" id="ent0026"><ellipse cx="999.6527" cy="632.9409" fill="#FFFFFF" rx="63.5327" ry="22.0709" style="stroke:#000000;stroke-width:1;"/><text fill="#000000" font-family="DejaVu Sans" font-size="12" font-weight="700" lengthAdjust="spacing" textLength="75.1348" x="962.0853" y="628.4558">Review the</text><text fill="#000000" font-family="DejaVu Sans" font-size="12" font-weight="700" lengthAdjust="spacing" textLength="88.6758" x="955.3148" y="642.4246">report queue</text></g><!--entity MOD1--><g class="entity" data-qualified-name="..10.MOD1" data-source-line="33" id="ent0027"><ellipse cx="698.6524" cy="486.3445" fill="#FFFFFF" rx="68.6224" ry="16.1245" style="stroke:#000000;stroke-width:1;"/><text fill="#000000" font-family="DejaVu Sans" font-size="12" font-weight="700" lengthAdjust="spacing" textLength="111.1172" x="643.0938" y="489.8288">Dismiss a report</text></g><!--entity MOD2--><g class="entity" data-qualified-name="..10.MOD2" data-source-line="34" id="ent0028"><ellipse cx="970.6488" cy="486.3378" fill="#FFFFFF" rx="69.1888" ry="16.2378" style="stroke:#000000;stroke-width:1;"/><text fill="#000000" font-family="DejaVu Sans" font-size="12" font-weight="700" lengthAdjust="spacing" textLength="112.4531" x="914.4223" y="489.8221">Delete an article</text></g><!--entity MOD3--><g class="entity" data-qualified-name="..10.MOD3" data-source-line="35" id="ent0029"><ellipse cx="834.6488" cy="486.3398" fill="#FFFFFF" rx="53.1488" ry="13.0298" style="stroke:#000000;stroke-width:1;"/><text fill="#000000" font-family="DejaVu Sans" font-size="12" font-weight="700" lengthAdjust="spacing" textLength="71.9824" x="798.6576" y="489.8241">Ban a user</text></g><!--entity ELIG--><g class="entity" data-qualified-name="..10.ELIG" data-source-line="36" id="ent0030"><ellipse cx="1125.6473" cy="486.3405" fill="#FFFFFF" rx="71.9773" ry="21.2005" style="stroke:#000000;stroke-width:1;"/><text fill="#000000" font-family="DejaVu Sans" font-size="12" font-weight="700" lengthAdjust="spacing" textLength="105.8789" x="1072.7078" y="485.1417">Grant eligibility</text><text fill="#000000" font-family="DejaVu Sans" font-size="12" font-weight="700" lengthAdjust="spacing" textLength="61.834" x="1094.7303" y="499.1104">manually</text></g><!--entity USERS--><g class="entity" data-qualified-name="..10.USERS" data-source-line="37" id="ent0031"><ellipse cx="1273.6528" cy="486.3386" fill="#FFFFFF" rx="61.7428" ry="14.7486" style="stroke:#000000;stroke-width:1;"/><text fill="#000000" font-family="DejaVu Sans" font-size="12" font-weight="700" lengthAdjust="spacing" textLength="94.4707" x="1226.4174" y="489.8229">Manage users</text></g><!--entity CLASSIFY--><g class="entity" data-qualified-name="..10.CLASSIFY" data-source-line="38" id="ent0032"><ellipse cx="1104.6504" cy="758.0957" fill="#FFFFFF" rx="78.7704" ry="22.4757" style="stroke:#000000;stroke-width:1;"/><text fill="#000000" font-family="DejaVu Sans" font-size="12" font-weight="700" lengthAdjust="spacing" textLength="108.6914" x="1050.3047" y="754.9933">Classify content</text><text fill="#000000" font-family="DejaVu Sans" font-size="12" font-weight="700" lengthAdjust="spacing" textLength="102.3164" x="1053.4922" y="768.962">at publish time</text></g><!--entity LG--><g class="entity" data-qualified-name="LG" data-source-line="6" id="ent0001"><ellipse cx="457.6555" cy="302.92" fill="#FFFFFF" rx="8" ry="8" style="stroke:#000000;stroke-width:0.5;"/><path d="M457.6555,310.92 L457.6555,337.92 M444.6555,318.92 L470.6555,318.92 M457.6555,337.92 L444.6555,352.92 M457.6555,337.92 L470.6555,352.92" fill="none" style="stroke:#000000;stroke-width:0.5;"/><text fill="#000000" font-family="DejaVu Sans" font-size="12" font-weight="700" lengthAdjust="spacing" textLength="79.3711" x="417.97" y="365.5587">Free reader</text></g><!--entity R--><g class="entity" data-qualified-name="R" data-source-line="7" id="ent0002"><ellipse cx="553.6503" cy="154.96" fill="#FFFFFF" rx="8" ry="8" style="stroke:#000000;stroke-width:0.5;"/><path d="M553.6503,162.96 L553.6503,189.96 M540.6503,170.96 L566.6503,170.96 M553.6503,189.96 L540.6503,204.96 M553.6503,189.96 L566.6503,204.96" fill="none" style="stroke:#000000;stroke-width:0.5;"/><text fill="#000000" font-family="DejaVu Sans" font-size="12" font-weight="700" lengthAdjust="spacing" textLength="43.0605" x="532.12" y="217.5987">Writer</text></g><!--entity RE--><g class="entity" data-qualified-name="RE" data-source-line="8" id="ent0003"><ellipse cx="970.6483" cy="14" fill="#FFFFFF" rx="8" ry="8" style="stroke:#000000;stroke-width:0.5;"/><path d="M970.6483,22 L970.6483,49 M957.6483,30 L983.6483,30 M970.6483,49 L957.6483,64 M970.6483,49 L983.6483,64" fill="none" style="stroke:#000000;stroke-width:0.5;"/><text fill="#000000" font-family="DejaVu Sans" font-size="12" font-weight="700" lengthAdjust="spacing" textLength="95.0566" x="923.12" y="76.6387">Eligible writer</text></g><!--entity MN--><g class="entity" data-qualified-name="MN" data-source-line="9" id="ent0004"><ellipse cx="94.6478" cy="450.87" fill="#FFFFFF" rx="8" ry="8" style="stroke:#000000;stroke-width:0.5;"/><path d="M94.6478,458.87 L94.6478,485.87 M81.6478,466.87 L107.6478,466.87 M94.6478,485.87 L81.6478,500.87 M94.6478,485.87 L107.6478,500.87" fill="none" style="stroke:#000000;stroke-width:0.5;"/><text fill="#000000" font-family="DejaVu Sans" font-size="12" font-weight="700" lengthAdjust="spacing" textLength="64.5059" x="43.68" y="513.5087">Magazine</text><text fill="#000000" font-family="DejaVu Sans" font-size="12" font-weight="700" lengthAdjust="spacing" textLength="101.9355" x="43.68" y="527.4774">(unsubscribed)</text></g><!--entity MA--><g class="entity" data-qualified-name="MA" data-source-line="10" id="ent0005"><ellipse cx="131.6548" cy="295.93" fill="#FFFFFF" rx="8" ry="8" style="stroke:#000000;stroke-width:0.5;"/><path d="M131.6548,303.93 L131.6548,330.93 M118.6548,311.93 L144.6548,311.93 M131.6548,330.93 L118.6548,345.93 M131.6548,330.93 L144.6548,345.93" fill="none" style="stroke:#000000;stroke-width:0.5;"/><text fill="#000000" font-family="DejaVu Sans" font-size="12" font-weight="700" lengthAdjust="spacing" textLength="64.5059" x="89.23" y="358.5687">Magazine</text><text fill="#000000" font-family="DejaVu Sans" font-size="12" font-weight="700" lengthAdjust="spacing" textLength="84.8496" x="89.23" y="372.5374">(subscribed)</text></g><!--entity AD--><g class="entity" data-qualified-name="AD" data-source-line="11" id="ent0006"><ellipse cx="1273.6517" cy="302.92" fill="#FFFFFF" rx="8" ry="8" style="stroke:#000000;stroke-width:0.5;"/><path d="M1273.6517,310.92 L1273.6517,337.92 M1260.6517,318.92 L1286.6517,318.92 M1273.6517,337.92 L1260.6517,352.92 M1273.6517,337.92 L1286.6517,352.92" fill="none" style="stroke:#000000;stroke-width:0.5;"/><text fill="#000000" font-family="DejaVu Sans" font-size="12" font-weight="700" lengthAdjust="spacing" textLength="93.9434" x="1226.68" y="365.5587">Administrator</text></g><g class="entity" data-qualified-name="N1" data-source-line="75" id="ent0062"><path d="M1032.06,18.27 L1032.06,66.6841 L1339.2426,66.6841 L1339.2426,28.27 L1329.2426,18.27 L1032.06,18.27" fill="#FFF2CC" style="stroke:#D6B656;stroke-width:0.5;"/><path d="M1329.2426,18.27 L1329.2426,28.27 L1339.2426,28.27 L1329.2426,18.27" fill="#FFF2CC" style="stroke:#D6B656;stroke-width:1;"/><text fill="#000000" font-family="DejaVu Sans" font-size="11" font-style="italic" lengthAdjust="spacing" textLength="253.4189" x="1038.06" y="33.4804">Listing on the marketplace requires eligibility:</text><text fill="#000000" font-family="DejaVu Sans" font-size="11" font-style="italic" lengthAdjust="spacing" textLength="249.396" x="1038.06" y="46.2851">5,000 identified readers and 1,000 reactions,</text><text fill="#000000" font-family="DejaVu Sans" font-size="11" font-style="italic" lengthAdjust="spacing" textLength="286.1826" x="1038.06" y="59.0898">lifetime and monotonic, or an administrator's grant.</text></g><g class="entity" data-qualified-name="N2" data-source-line="81" id="ent0063"><path d="M1353.02,11.87 L1353.02,73.0888 L1670.2842,73.0888 L1670.2842,21.87 L1660.2842,11.87 L1353.02,11.87" fill="#FFF2CC" style="stroke:#D6B656;stroke-width:0.5;"/><path d="M1660.2842,11.87 L1660.2842,21.87 L1670.2842,21.87 L1660.2842,11.87" fill="#FFF2CC" style="stroke:#D6B656;stroke-width:1;"/><text fill="#000000" font-family="DejaVu Sans" font-size="11" font-style="italic" lengthAdjust="spacing" textLength="296.2642" x="1359.02" y="27.0804">A full purchase is exclusive: once one magazine owns</text><text fill="#000000" font-family="DejaVu Sans" font-size="11" font-style="italic" lengthAdjust="spacing" textLength="255.7876" x="1359.02" y="39.8851">the article, any other is refused a preview or a</text><text fill="#000000" font-family="DejaVu Sans" font-size="11" font-style="italic" lengthAdjust="spacing" textLength="290.5332" x="1359.02" y="52.6898">purchase (FR-72). The owner then publishes it under</text><text fill="#000000" font-family="DejaVu Sans" font-size="11" font-style="italic" lengthAdjust="spacing" textLength="234.9746" x="1359.02" y="65.4945">its own masthead, public and free (FR-73).</text></g><!--link R to LG--><g class="link" data-entity-1="ent0002" data-entity-2="ent0001" data-link-type="extension" data-source-line="13" id="lnk7"><path d="M531.63,217.93 C516.68,240.66 506.8251,255.6538 491.4851,278.9638" fill="none" id="R-to-LG" style="stroke:#000000;stroke-width:1;"/><polygon fill="none" points="481.59,294,496.4972,282.2622,486.4731,275.6654,481.59,294" style="stroke:#000000;stroke-width:1;stroke-linejoin:miter;stroke-miterlimit:10;"/></g><!--link RE to R--><g class="link" data-entity-1="ent0003" data-entity-2="ent0002" data-link-type="extension" data-source-line="14" id="lnk8"><path d="M922.82,59.42 C832.54,89.51 657.3663,147.8779 592.5663,169.4779" fill="none" id="RE-to-R" style="stroke:#000000;stroke-width:1;"/><polygon fill="none" points="575.49,175.17,594.4637,175.17,590.6689,163.7858,575.49,175.17" style="stroke:#000000;stroke-width:1;stroke-linejoin:miter;stroke-miterlimit:10;"/></g><!--link MA to MN--><g class="link" data-entity-1="ent0005" data-entity-2="ent0004" data-link-type="extension" data-source-line="15" id="lnk9"><path d="M121.15,375.82 C116.13,396.57 114.3585,403.8537 109.3485,424.5837" fill="none" id="MA-to-MN" style="stroke:#000000;stroke-width:1;"/><polygon fill="none" points="105.12,442.08,115.1806,425.9932,103.5164,423.1742,105.12,442.08" style="stroke:#000000;stroke-width:1;stroke-linejoin:miter;stroke-miterlimit:10;"/></g><!--link LG to UPGRADE--><g class="link" data-entity-1="ent0001" data-entity-2="ent0013" data-link-type="dependency" data-source-line="41" id="lnk33"><path d="M449.36,368.65 C442.52,398.5 434.1846,434.9158 428.5546,459.5358" fill="none" id="LG-to-UPGRADE" style="stroke:#000000;stroke-width:1;"/><polygon fill="#000000" points="427.44,464.41,433.3456,456.5282,428.5546,459.5358,425.5469,454.7448,427.44,464.41" style="stroke:#000000;stroke-width:1;stroke-linejoin:miter;stroke-miterlimit:10;"/></g><!--link RE to LIST--><g class="link" data-entity-1="ent0003" data-entity-2="ent0017" data-link-type="dependency" data-source-line="42" id="lnk34"><path d="M1018.5,76.43 C1020.55,77.5 1022.6,78.52 1024.65,79.46 C1176.94,149.7 1387.65,14.75 1387.65,182.45 C1387.65,182.45 1387.65,182.45 1387.65,487.34 C1387.65,558.07 1309.5085,595.9849 1249.9285,615.2049" fill="none" id="RE-to-LIST" style="stroke:#000000;stroke-width:1;"/><polygon fill="#000000" points="1245.17,616.74,1254.9634,617.7837,1249.9285,615.2049,1252.5073,610.1701,1245.17,616.74" style="stroke:#000000;stroke-width:1;stroke-linejoin:miter;stroke-miterlimit:10;"/></g><!--link R to EARN--><g class="link" data-entity-1="ent0002" data-entity-2="ent0025" data-link-type="dependency" data-source-line="43" id="lnk35"><path d="M553.65,220.74 C553.65,287.33 553.65,421.28 553.65,466.09" fill="none" id="R-to-EARN" style="stroke:#000000;stroke-width:1;"/><polygon fill="#000000" points="553.65,471.09,557.65,462.09,553.65,466.09,549.65,462.09,553.65,471.09" style="stroke:#000000;stroke-width:1;stroke-linejoin:miter;stroke-miterlimit:10;"/></g><!--link MN to SUBSCRIBE--><g class="link" data-entity-1="ent0004" data-entity-2="ent0014" data-link-type="dependency" data-source-line="44" id="lnk36"><path d="M114.52,530.63 C124.66,547.92 138.7,566.3 156.65,577.31 C250.67,635 294.96,586.39 402.65,610.31 C410.74,612.1 414.4491,612.9792 422.6191,615.4192" fill="none" id="MN-to-SUBSCRIBE" style="stroke:#000000;stroke-width:1;"/><polygon fill="#000000" points="427.41,616.85,419.931,610.4418,422.6191,615.4192,417.6417,618.1072,427.41,616.85" style="stroke:#000000;stroke-width:1;stroke-linejoin:miter;stroke-miterlimit:10;"/></g><!--link MA to BROWSE--><g class="link" data-entity-1="ent0005" data-entity-2="ent0019" data-link-type="dependency" data-source-line="45" id="lnk37"><path d="M148.74,375.59 C171.55,433.02 209.47,527.67 212.65,530.31 C302.95,605.26 618.9,590.96 734.65,610.31 C746.31,612.26 753.7817,613.659 765.6417,616.209" fill="none" id="MA-to-BROWSE" style="stroke:#000000;stroke-width:1;"/><polygon fill="#000000" points="770.53,617.26,762.5719,611.4575,765.6417,616.209,760.8903,619.2788,770.53,617.26" style="stroke:#000000;stroke-width:1;stroke-linejoin:miter;stroke-miterlimit:10;"/></g><!--link MA to BUY--><g class="link" data-entity-1="ent0005" data-entity-2="ent0020" data-link-type="dependency" data-source-line="46" id="lnk38"><path d="M89.16,367.27 C69.12,386.5 47.31,412.19 36.65,440.47 C22.56,477.83 15.18,496.64 36.65,530.31 C76.36,592.59 154.8729,616.1344 218.7529,625.5044" fill="none" id="MA-to-BUY" style="stroke:#000000;stroke-width:1;"/><polygon fill="#000000" points="223.7,626.23,215.3758,620.9662,218.7529,625.5044,214.2148,628.8815,223.7,626.23" style="stroke:#000000;stroke-width:1;stroke-linejoin:miter;stroke-miterlimit:10;"/></g><!--link MA to TOPUP--><g class="link" data-entity-1="ent0005" data-entity-2="ent0016" data-link-type="dependency" data-source-line="47" id="lnk39"><path d="M88.78,360.01 C63.45,379.12 33.83,407.07 20.65,440.47 C6,477.61 6.41,493 20.65,530.31 C63.02,641.31 191.4599,713.8407 249.9999,742.1907" fill="none" id="MA-to-TOPUP" style="stroke:#000000;stroke-width:1;"/><polygon fill="#000000" points="254.5,744.37,248.1433,736.8472,249.9999,742.1907,244.6564,744.0473,254.5,744.37" style="stroke:#000000;stroke-width:1;stroke-linejoin:miter;stroke-miterlimit:10;"/></g><!--link MA to LIB--><g class="link" data-entity-1="ent0005" data-entity-2="ent0023" data-link-type="dependency" data-source-line="48" id="lnk40"><path d="M174.42,374.6 C206.85,406.6 245.9705,445.1986 268.1905,467.1186" fill="none" id="MA-to-LIB" style="stroke:#000000;stroke-width:1;"/><polygon fill="#000000" points="271.75,470.63,268.1521,461.4619,268.1905,467.1186,262.5338,467.157,271.75,470.63" style="stroke:#000000;stroke-width:1;stroke-linejoin:miter;stroke-miterlimit:10;"/></g><!--link MA to PUBLISH--><g class="link" data-entity-1="ent0005" data-entity-2="ent0024" data-link-type="dependency" data-source-line="49" id="lnk41"><path d="M140.03,375.82 C153.46,444.36 179.04,570.62 186.65,577.31 C245.98,629.49 462.61,598.02 540.65,610.31 C552.58,612.19 560.3508,613.6135 572.4508,616.2035" fill="none" id="MA-to-PUBLISH" style="stroke:#000000;stroke-width:1;"/><polygon fill="#000000" points="577.34,617.25,569.3766,611.4548,572.4508,616.2035,567.7021,619.2776,577.34,617.25" style="stroke:#000000;stroke-width:1;stroke-linejoin:miter;stroke-miterlimit:10;"/></g><!--link AD to MOD--><g class="link" data-entity-1="ent0006" data-entity-2="ent0026" data-link-type="dependency" data-source-line="50" id="lnk42"><path d="M1305.18,368.74 C1337.83,410.98 1379.33,481.18 1342.65,530.31 C1324.95,554.01 1148.5299,597.5867 1056.9199,618.9067" fill="none" id="AD-to-MOD" style="stroke:#000000;stroke-width:1;"/><polygon fill="#000000" points="1052.05,620.04,1061.7224,621.8959,1056.9199,618.9067,1059.9091,614.1041,1052.05,620.04" style="stroke:#000000;stroke-width:1;stroke-linejoin:miter;stroke-miterlimit:10;"/></g><!--link AD to ELIG--><g class="link" data-entity-1="ent0006" data-entity-2="ent0030" data-link-type="dependency" data-source-line="51" id="lnk43"><path d="M1238.58,368.65 C1209.17,399.03 1171.7763,437.6662 1148.1263,462.1162" fill="none" id="AD-to-ELIG" style="stroke:#000000;stroke-width:1;"/><polygon fill="#000000" points="1144.65,465.71,1153.7823,462.0221,1148.1263,462.1162,1148.0322,456.4601,1144.65,465.71" style="stroke:#000000;stroke-width:1;stroke-linejoin:miter;stroke-miterlimit:10;"/></g><!--link AD to USERS--><g class="link" data-entity-1="ent0006" data-entity-2="ent0031" data-link-type="dependency" data-source-line="52" id="lnk44"><path d="M1273.65,368.65 C1273.65,401.5 1273.65,443.22 1273.65,466.31" fill="none" id="AD-to-USERS" style="stroke:#000000;stroke-width:1;"/><polygon fill="#000000" points="1273.65,471.31,1277.65,462.31,1273.65,466.31,1269.65,462.31,1273.65,471.31" style="stroke:#000000;stroke-width:1;stroke-linejoin:miter;stroke-miterlimit:10;"/></g><!--link MOD1 to MOD--><g class="link" data-entity-1="ent0027" data-entity-2="ent0026" data-link-type="extension" data-source-line="54" id="lnk45"><path d="M722.99,501.84 C737.75,510.45 757.08,521.39 774.65,530.31 C838.49,562.69 898.2286,589.0187 943.5586,608.3187" fill="none" id="MOD1-to-MOD" style="stroke:#000000;stroke-width:1;"/><polygon fill="none" points="960.12,615.37,945.909,602.7983,941.2082,613.8392,960.12,615.37" style="stroke:#000000;stroke-width:1;stroke-linejoin:miter;stroke-miterlimit:10;"/></g><!--link MOD2 to MOD--><g class="link" data-entity-1="ent0028" data-entity-2="ent0026" data-link-type="extension" data-source-line="55" id="lnk46"><path d="M973.75,502.81 C978.96,528.75 985.8995,563.4016 991.8095,592.8616" fill="none" id="MOD2-to-MOD" style="stroke:#000000;stroke-width:1;"/><polygon fill="none" points="995.35,610.51,997.6923,591.6815,985.9267,594.0418,995.35,610.51" style="stroke:#000000;stroke-width:1;stroke-linejoin:miter;stroke-miterlimit:10;"/></g><!--link MOD3 to MOD--><g class="link" data-entity-1="ent0029" data-entity-2="ent0026" data-link-type="extension" data-source-line="56" id="lnk47"><path d="M848.15,499.17 C876.4,523.93 928.4516,569.5479 963.3416,600.1179" fill="none" id="MOD3-to-MOD" style="stroke:#000000;stroke-width:1;"/><polygon fill="none" points="976.88,611.98,967.2956,595.605,959.3875,604.6307,976.88,611.98" style="stroke:#000000;stroke-width:1;stroke-linejoin:miter;stroke-miterlimit:10;"/></g><!--link SUBSCRIBE to GRANT--><g class="link" data-entity-1="ent0014" data-entity-2="ent0015" data-link-type="dependency" data-source-line="58" id="lnk48"><path d="M506.6,651.75 C533.85,665.62 572.64,685.35 606.65,702.58 C630.82,714.82 653.5959,726.3178 674.6659,736.9478" fill="none" id="SUBSCRIBE-to-GRANT" style="stroke:#000000;stroke-width:1;stroke-dasharray:7,7;"/><polygon fill="#000000" points="679.13,739.2,672.8964,731.5749,674.6659,736.9478,669.293,738.7174,679.13,739.2" style="stroke:#000000;stroke-width:1;stroke-linejoin:miter;stroke-miterlimit:10;"/><text fill="#000000" font-family="DejaVu Sans" font-size="11" lengthAdjust="spacing" textLength="53.3135" x="607.65" y="699.7904">&#171;include&#187;</text></g><!--link SUBSCRIBE to AUTH--><g class="link" data-entity-1="ent0014" data-entity-2="ent0012" data-link-type="dependency" data-source-line="59" id="lnk49"><path d="M517.23,648.49 C525.03,650.9 533.06,653.35 540.65,655.58 C593.72,671.19 611.2,663.79 660.65,688.58 C669.71,693.12 669.57,698.08 678.65,702.58 C730.15,728.06 749.9,715.28 803.65,735.58 C811.93,738.7 816.2828,740.6253 823.7528,744.5053" fill="none" id="SUBSCRIBE-to-AUTH" style="stroke:#000000;stroke-width:1;stroke-dasharray:7,7;"/><polygon fill="#000000" points="828.19,746.81,822.0469,739.1118,823.7528,744.5053,818.3594,746.2113,828.19,746.81" style="stroke:#000000;stroke-width:1;stroke-linejoin:miter;stroke-miterlimit:10;"/><text fill="#000000" font-family="DejaVu Sans" font-size="11" lengthAdjust="spacing" textLength="53.3135" x="679.65" y="699.7904">&#171;include&#187;</text></g><!--link LIST to PRICE--><g class="link" data-entity-1="ent0017" data-entity-2="ent0018" data-link-type="dependency" data-source-line="60" id="lnk50"><path d="M1197.12,655.68 C1210.83,681.64 1230.9357,719.7484 1241.8957,740.5084" fill="none" id="LIST-to-PRICE" style="stroke:#000000;stroke-width:1;stroke-dasharray:7,7;"/><polygon fill="#000000" points="1244.23,744.93,1243.5655,735.1036,1241.8957,740.5084,1236.4909,738.8385,1244.23,744.93" style="stroke:#000000;stroke-width:1;stroke-linejoin:miter;stroke-miterlimit:10;"/><text fill="#000000" font-family="DejaVu Sans" font-size="11" lengthAdjust="spacing" textLength="53.3135" x="1221.1" y="699.7904">&#171;include&#187;</text></g><!--link LIST to AUTH--><g class="link" data-entity-1="ent0017" data-entity-2="ent0012" data-link-type="dependency" data-source-line="61" id="lnk51"><path d="M1137.08,651.59 C1063.48,678.32 931.1196,726.4129 875.6196,746.5729" fill="none" id="LIST-to-AUTH" style="stroke:#000000;stroke-width:1;stroke-dasharray:7,7;"/><polygon fill="#000000" points="870.92,748.28,880.7449,748.9669,875.6196,746.5729,878.0135,741.4476,870.92,748.28" style="stroke:#000000;stroke-width:1;stroke-linejoin:miter;stroke-miterlimit:10;"/><text fill="#000000" font-family="DejaVu Sans" font-size="11" lengthAdjust="spacing" textLength="53.3135" x="1027.32" y="699.7904">&#171;include&#187;</text></g><!--link BUY to LEDGER--><g class="link" data-entity-1="ent0020" data-entity-2="ent0022" data-link-type="dependency" data-source-line="62" id="lnk52"><path d="M361.35,650.1 C423.58,669.98 520.45,704.87 542.65,735.58 C569.42,772.6 555.6501,824.8876 543.8701,855.8076" fill="none" id="BUY-to-LEDGER" style="stroke:#000000;stroke-width:1;stroke-dasharray:7,7;"/><polygon fill="#000000" points="542.09,860.48,549.0321,853.4938,543.8701,855.8076,541.5563,850.6456,542.09,860.48" style="stroke:#000000;stroke-width:1;stroke-linejoin:miter;stroke-miterlimit:10;"/><text fill="#000000" font-family="DejaVu Sans" font-size="11" lengthAdjust="spacing" textLength="53.3135" x="558.18" y="762.3104">&#171;include&#187;</text></g><!--reverse link BUY to PREVIEW--><g class="link" data-entity-1="ent0020" data-entity-2="ent0021" data-link-type="dependency" data-source-line="63" id="lnk53"><path d="M333.895,657.0315 C359.565,679.6015 397.6,713.06 423.81,736.12" fill="none" id="BUY-backto-PREVIEW" style="stroke:#000000;stroke-width:1;stroke-dasharray:7,7;"/><polygon fill="#000000" points="330.14,653.73,334.2578,662.6767,333.895,657.0315,339.5402,656.6688,330.14,653.73" style="stroke:#000000;stroke-width:1;stroke-linejoin:miter;stroke-miterlimit:10;"/><text fill="#000000" font-family="DejaVu Sans" font-size="11" lengthAdjust="spacing" textLength="51.772" x="382.85" y="699.7904">&#171;extend&#187;</text></g><!--reverse link LIB to PUBLISH--><g class="link" data-entity-1="ent0023" data-entity-2="ent0024" data-link-type="dependency" data-source-line="64" id="lnk54"><path d="M313.7019,504.3182 C328.3019,513.1982 343.56,521.87 361.65,530.31 C437.54,565.71 529.47,597.47 585.74,615.72" fill="none" id="LIB-backto-PUBLISH" style="stroke:#000000;stroke-width:1;stroke-dasharray:7,7;"/><polygon fill="#000000" points="309.43,501.72,315.0408,509.8144,313.7019,504.3182,319.198,502.9793,309.43,501.72" style="stroke:#000000;stroke-width:1;stroke-linejoin:miter;stroke-miterlimit:10;"/><text fill="#000000" font-family="DejaVu Sans" font-size="11" lengthAdjust="spacing" textLength="51.772" x="474.51" y="574.5204">&#171;extend&#187;</text></g><!--link PUBLISH to AUTH--><g class="link" data-entity-1="ent0024" data-entity-2="ent0012" data-link-type="dependency" data-source-line="65" id="lnk55"><path d="M672.27,652.46 C691.39,662.84 715.49,676.16 736.65,688.58 C770.22,708.28 804.4417,729.94 825.8417,743.67" fill="none" id="PUBLISH-to-AUTH" style="stroke:#000000;stroke-width:1;stroke-dasharray:7,7;"/><polygon fill="#000000" points="830.05,746.37,824.635,738.1433,825.8417,743.67,820.315,744.8766,830.05,746.37" style="stroke:#000000;stroke-width:1;stroke-linejoin:miter;stroke-miterlimit:10;"/><text fill="#000000" font-family="DejaVu Sans" font-size="11" lengthAdjust="spacing" textLength="53.3135" x="758.95" y="699.7904">&#171;include&#187;</text></g><!--link PREVIEW to LEDGER--><g class="link" data-entity-1="ent0021" data-entity-2="ent0022" data-link-type="dependency" data-source-line="66" id="lnk56"><path d="M462.46,780.55 C477.96,803.02 499.3398,833.995 514.8898,856.525" fill="none" id="PREVIEW-to-LEDGER" style="stroke:#000000;stroke-width:1;stroke-dasharray:7,7;"/><polygon fill="#000000" points="517.73,860.64,515.9097,850.9608,514.8898,856.525,509.3257,855.5051,517.73,860.64" style="stroke:#000000;stroke-width:1;stroke-linejoin:miter;stroke-miterlimit:10;"/><text fill="#000000" font-family="DejaVu Sans" font-size="11" lengthAdjust="spacing" textLength="53.3135" x="493.7" y="824.8304">&#171;include&#187;</text></g><!--link TOPUP to LEDGER--><g class="link" data-entity-1="ent0016" data-entity-2="ent0022" data-link-type="dependency" data-source-line="67" id="lnk57"><path d="M308.93,772.04 C353.19,793.85 438.2745,835.7709 489.6445,861.0709" fill="none" id="TOPUP-to-LEDGER" style="stroke:#000000;stroke-width:1;stroke-dasharray:7,7;"/><polygon fill="#000000" points="494.13,863.28,487.8234,855.7152,489.6445,861.0709,484.2888,862.892,494.13,863.28" style="stroke:#000000;stroke-width:1;stroke-linejoin:miter;stroke-miterlimit:10;"/><text fill="#000000" font-family="DejaVu Sans" font-size="11" lengthAdjust="spacing" textLength="53.3135" x="416.15" y="824.8304">&#171;include&#187;</text></g><!--link GRANT to LEDGER--><g class="link" data-entity-1="ent0015" data-entity-2="ent0022" data-link-type="dependency" data-source-line="68" id="lnk58"><path d="M686.61,778.07 C653.01,800.81 601.0809,835.9477 566.6809,859.2277" fill="none" id="GRANT-to-LEDGER" style="stroke:#000000;stroke-width:1;stroke-dasharray:7,7;"/><polygon fill="#000000" points="562.54,862.03,572.2355,860.2985,566.6809,859.2277,567.7517,853.6731,562.54,862.03" style="stroke:#000000;stroke-width:1;stroke-linejoin:miter;stroke-miterlimit:10;"/><text fill="#000000" font-family="DejaVu Sans" font-size="11" lengthAdjust="spacing" textLength="53.3135" x="630.11" y="824.8304">&#171;include&#187;</text></g><!--link BROWSE to AUTH--><g class="link" data-entity-1="ent0019" data-entity-2="ent0012" data-link-type="dependency" data-source-line="69" id="lnk59"><path d="M834.09,654 C837.23,679.77 841.9742,718.7168 844.5642,739.9368" fill="none" id="BROWSE-to-AUTH" style="stroke:#000000;stroke-width:1;stroke-dasharray:7,7;"/><polygon fill="#000000" points="845.17,744.9,848.0501,735.4817,844.5642,739.9368,840.1091,736.4509,845.17,744.9" style="stroke:#000000;stroke-width:1;stroke-linejoin:miter;stroke-miterlimit:10;"/><text fill="#000000" font-family="DejaVu Sans" font-size="11" lengthAdjust="spacing" textLength="53.3135" x="840.6" y="699.7904">&#171;include&#187;</text></g><!--link MOD to AUTH--><g class="link" data-entity-1="ent0026" data-entity-2="ent0012" data-link-type="dependency" data-source-line="70" id="lnk60"><path d="M975.07,653.73 C942.63,679.84 890.5157,721.7958 864.5257,742.7058" fill="none" id="MOD-to-AUTH" style="stroke:#000000;stroke-width:1;stroke-dasharray:7,7;"/><polygon fill="#000000" points="860.63,745.84,870.1497,743.3149,864.5257,742.7058,865.1349,737.0818,860.63,745.84" style="stroke:#000000;stroke-width:1;stroke-linejoin:miter;stroke-miterlimit:10;"/><text fill="#000000" font-family="DejaVu Sans" font-size="11" lengthAdjust="spacing" textLength="53.3135" x="928.74" y="699.7904">&#171;include&#187;</text></g><!--link LIST to CLASSIFY--><g class="link" data-entity-1="ent0017" data-entity-2="ent0032" data-link-type="dependency" data-source-line="71" id="lnk61"><path d="M1171.36,655.68 C1156.55,678.19 1136.3085,708.9732 1121.5485,731.4032" fill="none" id="LIST-to-CLASSIFY" style="stroke:#000000;stroke-width:1;stroke-dasharray:7,7;"/><polygon fill="#000000" points="1118.8,735.58,1127.0888,730.2606,1121.5485,731.4032,1120.4059,725.863,1118.8,735.58" style="stroke:#000000;stroke-width:1;stroke-linejoin:miter;stroke-miterlimit:10;"/><text fill="#000000" font-family="DejaVu Sans" font-size="11" lengthAdjust="spacing" textLength="53.3135" x="1148.58" y="699.7904">&#171;include&#187;</text></g><?plantuml-src VLPXRziu3FtkNy4hSDWAfBbclUw0eWYGD6uM84a3Erun8C11iPb4g2rxajmkk-s_7oNPYTrkwOT2iXufyf6FoZkuvzjI8dpizk028eKGC_gNSBQLBEj0M4WkD5pVGCRa4-eYPJ5sG9Lh5KjUQ9uB1KmaaEK9IcRstXzSn6cP87IxV_shz3x5Rb5cgQUUk2WOkGL1O8K5zFvkV9HCF9cF7wyzZyKwbt1sBn518YFNPy0KJCVroQFakleOrD_yb6_vEaLuQHpwzUcCRTbtBd0btfUYYd-DoRc5pUQ_WBq13MhG8Ccuu4fJmhcxPp3ol03Wuk97tqGP-6uPUBE1Mz4DdiHOCx6b2F_p04g5bkkpa6y5SE7yHCjFpREee3eGbJfVYK9YnilCugB5E1YC_9QREbmwNmb61NEPM7mO3SExO39iMOo9SWrwXrGzeNVfVYLYYGdNojhG3VDb4x_C2oWBQ6AM3ujeqSHCYHPg261IyvWopSLAs1kExUDAEGbRlaCaCw1kgyuNmUIk5UnGvY-gvOUIT9UuK8R1msFOCbcKCjwPrJ6UbS1lr9oAFsEwTsRHbnRX8itZ9niAFdDyeJxeNVu9-SRoPECxhmBqFq_ynwRjB7_6cXqgw4haWYf792lg6rA6IzmVZVsWQVQPhh7UKxwMJEuhVeRjLDOfLpiJLvLKSaZVXHCDYT9FR_mYauABhQF87mJp9YAmAPgxLq9YaKiDNqiidSVPmwY97N6LSKLY1uUiCRqM25FKJRvhr8TMASsvsShw-EfjMw9LCq-vfhRCc2XPMbNCdqx6BTgPO5kq_boQKUW7OHDnbpAb-6OFCVKv2atKQIBIKQfvviAycmx2S7B_nVlfUTCnoRP_a9dLSzyrhPLvtt4vczlrKLrMxlsw5-iTjLYrT7gfDgR6rR8kts1ajuRxQccphTOkCS-mNaqLmXbsMxkhuyuxH4R3kEyK3JTmUrkDw7x_5SBCdrS0apJOFmEmkZo9-8KB8W2E0AU0tq9kkzrQN1Q3twXaYRrcs8GunjgG-kDl8waTduZ4bkXqi8x7q_dO3ZZ12PK7JfBMPhLkpbSWpnEv4Po2kH6YcRwaTfgwy6heacg_bboYQWhhXaokEvUNby0JaWNVS4ogzzQzwZrxI5_i_58TmgTyWqOorQjFr-U2nnsWTz78klaolbEmDLhkUbGTC84smZKJOG2RCaqF8mquHLUFvnjA8ZRl1nvUCiXVX28parerNpfqwHvo-YADjSGDYJuvZcyR5faShdX_7rpyy-6y2ykTzKTsP2pgQK3yS0sb80R8oinnmb00Ya0iwJXOR7FVc1ydrjtL-J73_m40?></g></svg>